<svg xmlns="http://www.w3.org/2000/svg" xmlns:xlink="http://www.w3.org/1999/xlink" width="480" height="400" viewBox="0 0 192 160" style="background-color:#000"><g fill="red" stroke="#333" stroke-width=".25"><g id="y"><g id="x"><g id="w"><g id="v"><g id="u"><g id="t"><g id="s"><path fill="#222" d="m10,2-1-1h-6l-1,1 1,1h6zl-1,1v6l1,1 1-1v-6zm0,16-1-1v-6l1-1 1,1v6zl-1-1h-6l-1,1 1,1h6zm-8-8-1,1v6l1,1 1-1v-6zl-1-1v-6l1-1 1,1v6zl1,1h6l1-1-1-1h-6z"/></g><use x="12" xlink:href="#s"/><path d="m22,2-1-1h-6l-1,1 1,1h6z"/></g><use x="24" xlink:href="#t"/><path d="m34,2-1,1v6l1,1 1-1v-6zm12,0-1,1v6l1,1 1-1v-6z"/></g><use x="48" xlink:href="#u"/><path d="m58,10-1,1v6l1,1 1-1v-6zm12,0-1,1v6l1,1 1-1v-6zm12,0-1,1v6l1,1 1-1v-6zm12,0-1,1v6l1,1 1-1v-6z"/></g><use x="96" xlink:href="#v"/><g id="r"><path d="m98,18 1,1h6l1-1-1-1h-6zm12,0 1,1h6l1-1-1-1h-6zm12,0 1,1h6l1-1-1-1h-6zm12,0 1,1h6l1-1-1-1h-6z"/></g><use x="48" xlink:href="#r"/></g><use y="20" xlink:href="#w"/><g id="q"><g id="p"><g id="o"><path d="m2,30-1,1v6l1,1 1-1v-6zm12,0-1,1v6l1,1 1-1v-6z"/></g><use x="24" xlink:href="#o"/></g><use x="48" xlink:href="#p"/></g><use x="96" xlink:href="#q"/></g><use y="40" xlink:href="#x"/><g id="n"><g id="m"><g id="l"><g id="k"><path d="m2,42-1,1v6l1,1 1-1v-6zm12,0-1,1v6l1,1 1-1v-6z"/></g><use y="20" xlink:href="#k"/></g><use x="24" xlink:href="#l"/></g><use x="48" xlink:href="#m"/></g><use x="96" xlink:href="#n"/></g><use y="80" xlink:href="#y"/><g id="j"><g id="i"><g id="h"><g id="g"><g id="f"><path d="m2,90 1,1h6l1-1-1-1h-6zm12,0 1,1h6l1-1-1-1h-6z"/></g><use x="24" xlink:href="#f"/></g><use y="20" xlink:href="#g"/></g><use x="48" xlink:href="#h"/></g><use y="40" xlink:href="#i"/></g><use x="96" xlink:href="#j"/></g></svg>